<svg id="Capa_1" data-name="Capa 1" xmlns="http://www.w3.org/2000/svg" viewBox="0 0 512 299"><title>bowl</title><path d="M109.59,244.64v21.28a19.17,19.17,0,0,0,18.79,19.42H383.62a19.17,19.17,0,0,0,18.79-19.42V244.65A256,256,0,0,0,512,34.62V19a6.43,6.43,0,0,0-6.43-6.44H6.43A6.43,6.43,0,0,0,0,19V34.62a256,256,0,0,0,109.59,210Zm273.84,27.83H128.57a6.28,6.28,0,0,1-6.11-6.39V246.55H389.54v19.53a6.28,6.28,0,0,1-6.11,6.39ZM12.87,25.38H499.13v9.24a243.24,243.24,0,0,1-3.32,40H140.88a6.44,6.44,0,1,0,0,12.87H493.32A243.17,243.17,0,0,1,395.6,233.68H116.4A243.17,243.17,0,0,1,18.68,87.46h81.76a6.44,6.44,0,0,0,0-12.87H16.19a243.24,243.24,0,0,1-3.32-40Z"/><path d="M406.51,199.47a6.46,6.46,0,0,0,4.58-1.91,255.32,255.32,0,0,0,43.67-59.34A6.43,6.43,0,0,0,443.49,132a.8.8,0,0,0-.08.16,242.46,242.46,0,0,1-41.48,56.35,6.44,6.44,0,0,0,4.58,11Z"/></svg>